<svg width="286" height="138" viewBox="0 0 286 138" fill="none" xmlns="http://www.w3.org/2000/svg">
<g filter="url(#filter0_d_187_4234)">
<rect x="40" y="32" width="206" height="58" rx="29" fill="white"/>
</g>
<path d="M118.801 47.8235V61H116.015V50.4678H115.938L112.92 52.3594V49.8888L116.182 47.8235H118.801ZM127.099 61.2895C125.992 61.2852 125.04 61.0129 124.242 60.4724C123.448 59.932 122.837 59.1492 122.408 58.1241C121.984 57.099 121.774 55.8658 121.778 54.4246C121.778 52.9877 121.99 51.7632 122.415 50.7509C122.844 49.7387 123.455 48.9687 124.248 48.4412C125.046 47.9093 125.996 47.6434 127.099 47.6434C128.201 47.6434 129.149 47.9093 129.942 48.4412C130.74 48.973 131.353 49.7451 131.782 50.7574C132.211 51.7653 132.424 52.9877 132.419 54.4246C132.419 55.8701 132.205 57.1054 131.776 58.1305C131.351 59.1556 130.742 59.9384 129.949 60.4789C129.155 61.0193 128.205 61.2895 127.099 61.2895ZM127.099 58.9798C127.853 58.9798 128.456 58.6002 128.906 57.841C129.357 57.0818 129.58 55.943 129.576 54.4246C129.576 53.4252 129.473 52.5931 129.267 51.9283C129.065 51.2635 128.778 50.7638 128.405 50.4292C128.036 50.0947 127.6 49.9274 127.099 49.9274C126.348 49.9274 125.747 50.3027 125.297 51.0533C124.847 51.8039 124.619 52.9277 124.615 54.4246C124.615 55.4369 124.716 56.2819 124.918 56.9596C125.123 57.633 125.413 58.1391 125.786 58.4779C126.159 58.8125 126.597 58.9798 127.099 58.9798ZM139.572 61.2895C138.466 61.2852 137.513 61.0129 136.716 60.4724C135.922 59.932 135.311 59.1492 134.882 58.1241C134.457 57.099 134.247 55.8658 134.251 54.4246C134.251 52.9877 134.464 51.7632 134.888 50.7509C135.317 49.7387 135.928 48.9687 136.722 48.4412C137.52 47.9093 138.47 47.6434 139.572 47.6434C140.674 47.6434 141.622 47.9093 142.416 48.4412C143.214 48.973 143.827 49.7451 144.256 50.7574C144.685 51.7653 144.897 52.9877 144.893 54.4246C144.893 55.8701 144.678 57.1054 144.25 58.1305C143.825 59.1556 143.216 59.9384 142.422 60.4789C141.629 61.0193 140.679 61.2895 139.572 61.2895ZM139.572 58.9798C140.327 58.9798 140.93 58.6002 141.38 57.841C141.83 57.0818 142.053 55.943 142.049 54.4246C142.049 53.4252 141.946 52.5931 141.74 51.9283C141.539 51.2635 141.251 50.7638 140.878 50.4292C140.509 50.0947 140.074 49.9274 139.572 49.9274C138.822 49.9274 138.221 50.3027 137.771 51.0533C137.32 51.8039 137.093 52.9277 137.089 54.4246C137.089 55.4369 137.189 56.2819 137.391 56.9596C137.597 57.633 137.886 58.1391 138.26 58.4779C138.633 58.8125 139.07 58.9798 139.572 58.9798ZM150.817 58.9926V49.8824H153.12V58.9926H150.817ZM147.413 55.5892V53.2858H156.524V55.5892H147.413ZM112.861 76V67.2727H118.537V68.598H114.442V70.9673H118.243V72.2926H114.442V74.6747H118.571V76H112.861ZM121.343 69.4545L122.664 71.8707L124.006 69.4545H125.638L123.665 72.7273L125.673 76H124.049L122.664 73.6435L121.292 76H119.656L121.65 72.7273L119.707 69.4545H121.343ZM126.832 78.4545V69.4545H128.349V70.5369H128.438C128.518 70.3778 128.63 70.2088 128.775 70.0298C128.92 69.848 129.116 69.6932 129.363 69.5653C129.61 69.4347 129.925 69.3693 130.309 69.3693C130.815 69.3693 131.271 69.4986 131.677 69.7571C132.086 70.0128 132.41 70.392 132.648 70.8949C132.89 71.3949 133.011 72.0085 133.011 72.7358C133.011 73.4545 132.893 74.0653 132.657 74.5682C132.421 75.071 132.1 75.4545 131.694 75.7188C131.288 75.983 130.827 76.1151 130.313 76.1151C129.938 76.1151 129.627 76.0526 129.38 75.9276C129.133 75.8026 128.934 75.652 128.783 75.4759C128.636 75.2969 128.521 75.1278 128.438 74.9688H128.374V78.4545H126.832ZM128.344 72.7273C128.344 73.1506 128.404 73.5213 128.523 73.8395C128.646 74.1577 128.82 74.4062 129.048 74.5852C129.278 74.7614 129.556 74.8494 129.883 74.8494C130.224 74.8494 130.509 74.7585 130.739 74.5767C130.969 74.392 131.143 74.1406 131.259 73.8224C131.379 73.5014 131.438 73.1364 131.438 72.7273C131.438 72.321 131.38 71.9602 131.263 71.6449C131.147 71.3295 130.974 71.0824 130.744 70.9034C130.513 70.7244 130.227 70.6349 129.883 70.6349C129.553 70.6349 129.273 70.7216 129.043 70.8949C128.813 71.0682 128.638 71.3111 128.519 71.6236C128.403 71.9361 128.344 72.304 128.344 72.7273ZM137.229 76.1278C136.573 76.1278 136.006 75.9915 135.529 75.7188C135.055 75.4432 134.69 75.054 134.434 74.5511C134.178 74.0455 134.05 73.4503 134.05 72.7656C134.05 72.0923 134.178 71.5014 134.434 70.9929C134.692 70.4815 135.053 70.0838 135.516 69.7997C135.979 69.5128 136.523 69.3693 137.148 69.3693C137.552 69.3693 137.933 69.4347 138.29 69.5653C138.651 69.6932 138.969 69.892 139.245 70.1619C139.523 70.4318 139.742 70.7756 139.901 71.1932C140.06 71.608 140.14 72.1023 140.14 72.6761V73.1491H134.775V72.1094H138.661C138.658 71.8139 138.594 71.5511 138.469 71.321C138.344 71.0881 138.17 70.9048 137.945 70.7713C137.724 70.6378 137.465 70.571 137.17 70.571C136.854 70.571 136.577 70.6477 136.339 70.8011C136.1 70.9517 135.914 71.1506 135.781 71.3977C135.65 71.642 135.583 71.9105 135.58 72.2031V73.1108C135.58 73.4915 135.65 73.8182 135.789 74.0909C135.928 74.3608 136.123 74.5682 136.373 74.7131C136.623 74.8551 136.915 74.9261 137.251 74.9261C137.475 74.9261 137.678 74.8949 137.86 74.8324C138.042 74.767 138.2 74.6719 138.333 74.5469C138.467 74.4219 138.567 74.267 138.636 74.0824L140.076 74.2443C139.985 74.625 139.812 74.9574 139.556 75.2415C139.303 75.5227 138.979 75.7415 138.585 75.8977C138.19 76.0511 137.738 76.1278 137.229 76.1278ZM141.445 76V69.4545H142.941V70.5455H143.009C143.128 70.1676 143.333 69.8764 143.623 69.6719C143.915 69.4645 144.249 69.3608 144.624 69.3608C144.709 69.3608 144.804 69.3651 144.909 69.3736C145.017 69.3793 145.107 69.3892 145.178 69.4034V70.8224C145.113 70.7997 145.009 70.7798 144.867 70.7628C144.728 70.7429 144.593 70.733 144.462 70.733C144.181 70.733 143.928 70.794 143.703 70.9162C143.482 71.0355 143.307 71.2017 143.179 71.4148C143.051 71.6278 142.988 71.8736 142.988 72.152V76H141.445ZM149.823 69.4545V70.6477H146.06V69.4545H149.823ZM146.989 67.8864H148.532V74.0312C148.532 74.2386 148.563 74.3977 148.625 74.5085C148.691 74.6165 148.776 74.6903 148.881 74.7301C148.986 74.7699 149.103 74.7898 149.23 74.7898C149.327 74.7898 149.415 74.7827 149.495 74.7685C149.577 74.7543 149.64 74.7415 149.682 74.7301L149.942 75.9361C149.86 75.9645 149.742 75.9957 149.588 76.0298C149.438 76.0639 149.253 76.0838 149.034 76.0895C148.648 76.1009 148.3 76.0426 147.99 75.9148C147.681 75.7841 147.435 75.5824 147.253 75.3097C147.074 75.0369 146.986 74.696 146.989 74.2869V67.8864ZM154.158 67.2727H156.092L158.683 73.5966H158.786L161.376 67.2727H163.311V76H161.794V70.0043H161.713L159.301 75.9744H158.168L155.756 69.9915H155.675V76H154.158V67.2727ZM167.862 76.1278C167.206 76.1278 166.639 75.9915 166.162 75.7188C165.688 75.4432 165.322 75.054 165.067 74.5511C164.811 74.0455 164.683 73.4503 164.683 72.7656C164.683 72.0923 164.811 71.5014 165.067 70.9929C165.325 70.4815 165.686 70.0838 166.149 69.7997C166.612 69.5128 167.156 69.3693 167.781 69.3693C168.185 69.3693 168.565 69.4347 168.923 69.5653C169.284 69.6932 169.602 69.892 169.878 70.1619C170.156 70.4318 170.375 70.7756 170.534 71.1932C170.693 71.608 170.773 72.1023 170.773 72.6761V73.1491H165.408V72.1094H169.294C169.291 71.8139 169.227 71.5511 169.102 71.321C168.977 71.0881 168.803 70.9048 168.578 70.7713C168.357 70.6378 168.098 70.571 167.803 70.571C167.487 70.571 167.21 70.6477 166.972 70.8011C166.733 70.9517 166.547 71.1506 166.413 71.3977C166.283 71.642 166.216 71.9105 166.213 72.2031V73.1108C166.213 73.4915 166.283 73.8182 166.422 74.0909C166.561 74.3608 166.756 74.5682 167.006 74.7131C167.256 74.8551 167.548 74.9261 167.884 74.9261C168.108 74.9261 168.311 74.8949 168.493 74.8324C168.675 74.767 168.832 74.6719 168.966 74.5469C169.099 74.4219 169.2 74.267 169.268 74.0824L170.709 74.2443C170.618 74.625 170.445 74.9574 170.189 75.2415C169.936 75.5227 169.612 75.7415 169.217 75.8977C168.822 76.0511 168.371 76.1278 167.862 76.1278ZM173.62 72.1648V76H172.078V69.4545H173.552V70.5668H173.629C173.779 70.2003 174.02 69.9091 174.349 69.6932C174.681 69.4773 175.092 69.3693 175.581 69.3693C176.032 69.3693 176.426 69.4659 176.761 69.6591C177.099 69.8523 177.36 70.1321 177.545 70.4986C177.733 70.8651 177.825 71.3097 177.822 71.8324V76H176.279V72.071C176.279 71.6335 176.166 71.2912 175.939 71.044C175.714 70.7969 175.403 70.6733 175.005 70.6733C174.735 70.6733 174.495 70.733 174.285 70.8523C174.078 70.9687 173.914 71.1378 173.795 71.3594C173.679 71.581 173.62 71.8494 173.62 72.1648ZM182.659 69.4545V70.6477H178.896V69.4545H182.659ZM179.825 67.8864H181.368V74.0312C181.368 74.2386 181.399 74.3977 181.461 74.5085C181.527 74.6165 181.612 74.6903 181.717 74.7301C181.822 74.7699 181.939 74.7898 182.066 74.7898C182.163 74.7898 182.251 74.7827 182.331 74.7685C182.413 74.7543 182.475 74.7415 182.518 74.7301L182.778 75.9361C182.696 75.9645 182.578 75.9957 182.424 76.0298C182.274 76.0639 182.089 76.0838 181.87 76.0895C181.484 76.1009 181.136 76.0426 180.826 75.9148C180.517 75.7841 180.271 75.5824 180.089 75.3097C179.91 75.0369 179.822 74.696 179.825 74.2869V67.8864ZM186.734 76.1278C186.094 76.1278 185.54 75.9872 185.072 75.706C184.603 75.4247 184.239 75.0312 183.981 74.5256C183.725 74.0199 183.597 73.429 183.597 72.7528C183.597 72.0767 183.725 71.4844 183.981 70.9759C184.239 70.4673 184.603 70.0724 185.072 69.7912C185.54 69.5099 186.094 69.3693 186.734 69.3693C187.373 69.3693 187.927 69.5099 188.396 69.7912C188.864 70.0724 189.227 70.4673 189.482 70.9759C189.741 71.4844 189.87 72.0767 189.87 72.7528C189.87 73.429 189.741 74.0199 189.482 74.5256C189.227 75.0312 188.864 75.4247 188.396 75.706C187.927 75.9872 187.373 76.1278 186.734 76.1278ZM186.742 74.892C187.089 74.892 187.379 74.7969 187.612 74.6065C187.844 74.4134 188.018 74.1548 188.131 73.831C188.248 73.5071 188.306 73.1463 188.306 72.7486C188.306 72.348 188.248 71.9858 188.131 71.6619C188.018 71.3352 187.844 71.0753 187.612 70.8821C187.379 70.6889 187.089 70.5923 186.742 70.5923C186.387 70.5923 186.092 70.6889 185.856 70.8821C185.623 71.0753 185.448 71.3352 185.332 71.6619C185.218 71.9858 185.161 72.348 185.161 72.7486C185.161 73.1463 185.218 73.5071 185.332 73.831C185.448 74.1548 185.623 74.4134 185.856 74.6065C186.092 74.7969 186.387 74.892 186.742 74.892ZM191.179 76V69.4545H192.675V70.5455H192.743C192.863 70.1676 193.067 69.8764 193.357 69.6719C193.65 69.4645 193.983 69.3608 194.358 69.3608C194.444 69.3608 194.539 69.3651 194.644 69.3736C194.752 69.3793 194.841 69.3892 194.912 69.4034V70.8224C194.847 70.7997 194.743 70.7798 194.601 70.7628C194.462 70.7429 194.327 70.733 194.196 70.733C193.915 70.733 193.662 70.794 193.438 70.9162C193.216 71.0355 193.042 71.2017 192.914 71.4148C192.786 71.6278 192.722 71.8736 192.722 72.152V76H191.179ZM201.11 71.1847L199.704 71.3381C199.664 71.196 199.595 71.0625 199.495 70.9375C199.399 70.8125 199.268 70.7116 199.103 70.6349C198.939 70.5582 198.737 70.5199 198.498 70.5199C198.177 70.5199 197.907 70.5895 197.689 70.7287C197.473 70.8679 197.366 71.0483 197.369 71.2699C197.366 71.4602 197.436 71.6151 197.578 71.7344C197.723 71.8537 197.961 71.9517 198.294 72.0284L199.41 72.267C200.029 72.4006 200.49 72.6122 200.791 72.902C201.095 73.1918 201.248 73.571 201.251 74.0398C201.248 74.4517 201.127 74.8153 200.889 75.1307C200.653 75.4432 200.325 75.6875 199.904 75.8636C199.484 76.0398 199.001 76.1278 198.456 76.1278C197.654 76.1278 197.01 75.9602 196.521 75.625C196.032 75.2869 195.741 74.8168 195.647 74.2145L197.152 74.0696C197.22 74.3651 197.365 74.5881 197.586 74.7386C197.808 74.8892 198.096 74.9645 198.451 74.9645C198.818 74.9645 199.112 74.8892 199.333 74.7386C199.558 74.5881 199.67 74.402 199.67 74.1804C199.67 73.9929 199.598 73.8381 199.453 73.7159C199.311 73.5937 199.089 73.5 198.788 73.4347L197.672 73.2003C197.044 73.0696 196.579 72.8494 196.278 72.5398C195.977 72.2273 195.828 71.8324 195.831 71.3551C195.828 70.9517 195.937 70.6023 196.159 70.3068C196.383 70.0085 196.694 69.7784 197.092 69.6165C197.493 69.4517 197.954 69.3693 198.477 69.3693C199.244 69.3693 199.848 69.5327 200.288 69.8594C200.731 70.1861 201.005 70.6278 201.11 71.1847Z" fill="#676B7C"/>
<circle cx="70" cy="61" r="24" fill="#A6CF4A"/>
<path d="M79.1756 70.4655L77.4035 65.503V65.5033C77.2203 64.9943 76.8397 64.5804 76.3476 64.3557L73.0676 62.8642V62.8639C73.8549 62.1581 74.4083 61.2288 74.6535 60.1999H74.7988C75.223 60.1999 75.63 60.0315 75.93 59.7313C76.2302 59.4313 76.3988 59.0243 76.3988 58.6001C76.3972 58.2268 76.264 57.8661 76.0224 57.5815L76.3988 53.7999C76.3988 51.1532 73.3484 49 69.599 49C67.1246 49 65.143 50.04 64.8391 51.4269H64.8388C64.2656 51.5167 63.7439 51.81 63.3693 52.2532C62.9947 52.6964 62.7922 53.2597 62.7989 53.8399L63.1728 57.5815H63.173C62.9323 57.8665 62.8 58.227 62.7989 58.6001C62.7989 59.0243 62.9675 59.4313 63.2675 59.7313C63.5675 60.0315 63.9746 60.1999 64.3989 60.1999H64.5442C64.7897 61.2287 65.3435 62.1581 66.1313 62.8639L62.8513 64.3555V64.3557C62.3591 64.5804 61.9783 64.9943 61.7954 65.5035L60.0233 70.4655C59.9766 70.5963 60.0011 70.7418 60.0877 70.8501C60.1588 70.9376 61.8954 73 69.599 73C77.3028 73 79.0387 70.9376 79.1114 70.8501C79.198 70.7418 79.2225 70.5963 79.1758 70.4655L79.1756 70.4655ZM70.3667 66.6001L71.9987 64.2688V66.6001H70.3667ZM70.4868 68.2001H68.7111L68.511 67.4001H70.6862L70.4868 68.2001ZM67.1988 66.6001V64.2688L68.8307 66.6001H67.1988ZM69.5989 66.3024L67.9316 63.9201C69.0118 64.2924 70.1857 64.2924 71.2659 63.9201L69.5989 66.3024ZM74.7987 59.4003V57.8003C75.2406 57.8003 75.5987 58.1585 75.5987 58.6003C75.5987 59.0421 75.2405 59.4003 74.7987 59.4003ZM65.1988 52.2002C65.3048 52.2002 65.4067 52.1581 65.4817 52.0831C65.5565 52.008 65.5988 51.9064 65.5988 51.8002C65.5988 50.7161 67.4307 49.8001 69.5989 49.8001C72.9073 49.8001 75.5988 51.5946 75.6011 53.7601L75.269 57.08V57.0802C75.1173 57.0299 74.9589 57.0031 74.7991 57.0003V55.4003C74.7991 55.2943 74.7568 55.1924 74.6817 55.1174C74.6069 55.0425 74.505 55.0003 74.399 55.0003C74.0194 55.0003 73.6401 54.9684 73.2658 54.9051C73.048 54.8682 72.8415 55.0148 72.8045 55.2326C72.7676 55.4504 72.9145 55.6571 73.1323 55.6938C73.4191 55.7426 73.7085 55.7747 73.999 55.7899V56.8347L73.4311 57.4027H73.4309C73.2029 56.8802 72.7627 56.48 72.2209 56.3024C71.6793 56.1248 71.0876 56.1869 70.5945 56.4729C70.1012 56.759 69.7536 57.2419 69.6391 57.8004H69.5589C69.4442 57.2422 69.0966 56.7595 68.6035 56.4736C68.1104 56.1877 67.5189 56.1255 66.9774 56.3029C66.4358 56.4805 65.9956 56.8805 65.7674 57.4027L65.199 56.8348V55.8004C65.9819 55.7992 66.7432 55.5435 67.3679 55.0717C67.9926 54.6001 68.4469 53.9377 68.6622 53.1851C69.4234 54.0602 70.3747 54.7496 71.4433 55.2004C71.5417 55.2452 71.654 55.2484 71.7546 55.2092C71.8553 55.1699 71.9359 55.0916 71.978 54.9918C72.02 54.8923 72.0198 54.78 71.9777 54.6805C71.9355 54.581 71.8549 54.5027 71.7542 54.4636C70.6461 53.9955 69.6816 53.2421 68.959 52.2804L68.719 51.9603C68.6158 51.8227 68.4359 51.7666 68.2726 51.8208C68.1093 51.8753 67.9991 52.0282 67.9991 52.2003C67.9982 52.9428 67.7028 53.6544 67.1781 54.1793C66.6531 54.7043 65.9413 54.9995 65.199 55.0004H64.799C64.578 55.0004 64.399 55.1794 64.399 55.4004V57.0004C64.239 57.003 64.0805 57.03 63.9286 57.0803L63.599 53.8003C63.599 53.3761 63.7676 52.9691 64.0676 52.6691C64.3676 52.3689 64.7748 52.2003 65.1991 52.2003L65.1988 52.2002ZM72.7986 58.2001C72.7986 58.5183 72.6722 58.8234 72.4471 59.0486C72.2221 59.2736 71.9168 59.4001 71.5985 59.4001C71.2802 59.4001 70.9752 59.2736 70.75 59.0486C70.525 58.8234 70.3985 58.5183 70.3985 58.2001C70.3985 57.8818 70.525 57.5765 70.75 57.3515C70.9752 57.1263 71.2802 57 71.5985 57C71.9168 57 72.2221 57.1263 72.4471 57.3515C72.6722 57.5765 72.7986 57.8818 72.7986 58.2001ZM68.7985 58.2001C68.7985 58.5183 68.6722 58.8234 68.4472 59.0486C68.222 59.2736 67.9169 59.4001 67.5987 59.4001C67.2804 59.4001 66.9751 59.2736 66.7501 59.0486C66.5249 58.8234 66.3986 58.5183 66.3986 58.2001C66.3986 57.8818 66.5249 57.5765 66.7501 57.3515C66.9751 57.1263 67.2804 57 67.5987 57C67.9169 57 68.222 57.1263 68.4472 57.3515C68.6722 57.5765 68.7985 57.8818 68.7985 58.2001ZM64.3986 59.4001C63.9568 59.4001 63.5986 59.0419 63.5986 58.6001C63.5986 58.1583 63.9568 57.8001 64.3986 57.8001V59.4001ZM65.1986 59.0001V57.9657L65.6173 58.3844C65.6746 59.0266 66.0386 59.6015 66.5947 59.9278C67.1508 60.2539 67.8303 60.2911 68.4188 60.0276C69.007 59.7638 69.4318 59.2322 69.5585 58.6H69.6387C69.7657 59.2317 70.1904 59.7629 70.7786 60.0262C71.3666 60.2897 72.0459 60.2525 72.6018 59.9266C73.1577 59.6005 73.5219 59.0262 73.5794 58.3843L73.9986 57.9656V59C73.9986 60.5719 73.16 62.0243 71.7985 62.8105C70.4373 63.5964 68.7598 63.5964 67.3986 62.8105C66.0372 62.0243 65.1986 60.5719 65.1986 59L65.1986 59.0001ZM62.5473 65.7727C62.6572 65.4672 62.8856 65.2187 63.181 65.0836L66.3987 63.6212V67C66.3987 67.106 66.4407 67.2079 66.5158 67.2827C66.5908 67.3578 66.6924 67.4 66.7987 67.4H67.6862L67.9939 68.6292L67.6414 72.1491C63.0815 71.9091 61.3465 70.8611 60.8647 70.4844L62.5473 65.7727ZM68.4421 72.1829L68.7622 68.9997H70.4385L70.7586 72.1829C70.3858 72.1938 70.0013 72.1998 69.5985 72.1998C69.1958 72.1998 68.8115 72.1938 68.4421 72.1829H68.4421ZM71.5558 72.1501L71.2034 68.6302L71.511 67.3999H72.3986C72.5046 67.3999 72.6064 67.3576 72.6815 67.2826C72.7565 67.2077 72.7986 67.1059 72.7986 66.9999V63.6211L76.0162 65.0834C76.3114 65.2186 76.5398 65.4668 76.6497 65.7721L78.3324 70.484C77.8442 70.8662 76.1077 71.9111 71.5557 72.1501L71.5558 72.1501Z" fill="white"/>
<path d="M73.9986 69.7998C73.7776 69.7998 73.5986 69.979 73.5986 70.1998C73.5986 70.4208 73.7776 70.5998 73.9986 70.5998H76.3987C76.6195 70.5998 76.7987 70.4208 76.7987 70.1998C76.7987 69.979 76.6195 69.7998 76.3987 69.7998H73.9986Z" fill="white"/>
<path d="M69.5985 62.5998C70.253 62.601 70.8918 62.3998 71.4278 62.0243C71.5176 61.9647 71.5798 61.8714 71.6001 61.7656C71.6202 61.6596 71.5969 61.5499 71.535 61.4614C71.4733 61.373 71.3784 61.3134 71.2719 61.2958C71.1654 61.2783 71.0564 61.3046 70.9696 61.3686C70.5657 61.6444 70.0878 61.7917 69.5986 61.7917C69.1095 61.7917 68.6318 61.6443 68.2277 61.3686C68.0466 61.2446 67.7995 61.2896 67.6738 61.4695C67.548 61.6492 67.5907 61.8968 67.7692 62.0243C68.3053 62.3998 68.9441 62.601 69.5984 62.5998H69.5985Z" fill="white"/>
<defs>
<filter id="filter0_d_187_4234" x="0" y="0" width="286" height="138" filterUnits="userSpaceOnUse" color-interpolation-filters="sRGB">
<feFlood flood-opacity="0" result="BackgroundImageFix"/>
<feColorMatrix in="SourceAlpha" type="matrix" values="0 0 0 0 0 0 0 0 0 0 0 0 0 0 0 0 0 0 127 0" result="hardAlpha"/>
<feOffset dy="8"/>
<feGaussianBlur stdDeviation="20"/>
<feComposite in2="hardAlpha" operator="out"/>
<feColorMatrix type="matrix" values="0 0 0 0 0 0 0 0 0 0 0 0 0 0 0 0 0 0 0.04 0"/>
<feBlend mode="normal" in2="BackgroundImageFix" result="effect1_dropShadow_187_4234"/>
<feBlend mode="normal" in="SourceGraphic" in2="effect1_dropShadow_187_4234" result="shape"/>
</filter>
</defs>
</svg>
