<svg width="158" height="90" viewBox="0 0 158 90" fill="none" xmlns="http://www.w3.org/2000/svg">
<g filter="url(#filter0_d_187_4228)">
<rect x="16" y="10" width="126" height="58" rx="6" fill="white"/>
</g>
<circle cx="47" cy="39" r="21" fill="#FF60A8"/>
<path fill-rule="evenodd" clip-rule="evenodd" d="M49.0908 31.3324L52.4751 29.0765C52.6145 28.9833 52.7941 28.9747 52.9419 29.0538C53.0897 29.1328 53.1818 29.2869 53.1818 29.4546V31.7274H54.5456C54.7965 31.7274 55 31.9311 55 32.182V48.5454C55 48.7965 54.7965 49 54.5456 49H42.2728C41.0183 49 40 47.9818 40 46.7273V34.0002C40 32.9015 40.7814 31.9838 41.8182 31.7729V30.3638C41.8182 29.6106 42.4286 29.0002 43.1818 29.0002H47.7273C48.4805 29.0002 49.0909 29.6106 49.0909 30.3638L49.0908 31.3324ZM42.2728 45.3637C41.52 45.3637 40.9092 45.9747 40.9092 46.7273C40.9092 47.4801 41.52 48.0911 42.2728 48.0911H54.0909V45.3638L42.2728 45.3637ZM53.1819 32.6366V34.9092C53.1819 35.077 53.0898 35.2312 52.942 35.3102C52.7943 35.3894 52.6147 35.3807 52.4752 35.2875L49.091 33.0317V34.0002C49.091 34.7534 48.4805 35.3638 47.7274 35.3638H43.1818C42.4287 35.3638 41.8182 34.7534 41.8182 34.0002V32.7144C41.2888 32.9015 40.9093 33.407 40.9093 34.0002V44.9098C41.1738 44.7111 41.4824 44.5684 41.8182 44.5002V36.7276C41.8182 36.4765 42.022 36.273 42.2728 36.273C42.5237 36.273 42.7274 36.4765 42.7274 36.7276V44.455H54.0913V32.6369L53.1819 32.6366ZM44.0912 42.6363H50.455C50.7059 42.6363 50.9094 42.4328 50.9094 42.1819C50.9094 41.9309 50.7059 41.7273 50.455 41.7273H44.0912C43.8404 41.7273 43.6366 41.9309 43.6366 42.1819C43.6366 42.4328 43.8404 42.6363 44.0912 42.6363ZM44.0912 40.8181H50.455C50.7059 40.8181 50.9094 40.6146 50.9094 40.3637C50.9094 40.1127 50.7059 39.9091 50.455 39.9091H44.0912C43.8404 39.9091 43.6366 40.1127 43.6366 40.3637C43.6366 40.6146 43.8404 40.8181 44.0912 40.8181ZM44.0912 39H50.455C50.7059 39 50.9094 38.7964 50.9094 38.5455C50.9094 38.2945 50.7059 38.091 50.455 38.091H44.0912C43.8404 38.091 43.6366 38.2945 43.6366 38.5455C43.6366 38.7964 43.8404 39 44.0912 39ZM44.0912 37.1818H48.6368C48.8876 37.1818 49.0912 36.9782 49.0912 36.7274C49.0912 36.4763 48.8876 36.2728 48.6368 36.2728H44.0912C43.8404 36.2728 43.6366 36.4763 43.6366 36.7274C43.6366 36.9782 43.8404 37.1818 44.0912 37.1818ZM42.7276 30.3637V34.0001C42.7276 34.251 42.9312 34.4547 43.182 34.4547H47.7276C47.9784 34.4547 48.1822 34.251 48.1822 34.0001V30.3637C48.1822 30.1129 47.9784 29.9092 47.7276 29.9092H43.182C42.9312 29.9092 42.7276 30.1129 42.7276 30.3637ZM49.4563 32.1819L52.2731 34.0597V30.3042L49.4563 32.1819ZM46.8185 31.7273C47.0694 31.7273 47.2729 31.9311 47.2729 32.1819C47.2729 32.4328 47.0694 32.6365 46.8185 32.6365C46.5675 32.6365 46.3639 32.4328 46.3639 32.1819C46.3639 31.9311 46.5675 31.7273 46.8185 31.7273ZM44.0912 32.6365H45.0003C45.2512 32.6365 45.4548 32.4328 45.4548 32.1819C45.4548 31.931 45.2512 31.7273 45.0003 31.7273H44.0912C43.8403 31.7273 43.6366 31.931 43.6366 32.1819C43.6366 32.4328 43.8403 32.6365 44.0912 32.6365Z" fill="white"/>
<path d="M84.8006 25.8235V39H82.0147V28.4678H81.9375L78.92 30.3594V27.8888L82.182 25.8235H84.8006ZM88.0094 39V25.8235H90.7953V31.6333H90.969L95.7107 25.8235H99.0499L94.1602 31.7233L99.1078 39H95.775L92.1657 33.5827L90.7953 35.2555V39H88.0094ZM103.565 36.9926V27.8824H105.868V36.9926H103.565ZM100.161 33.5892V31.2858H109.272V33.5892H100.161ZM86.331 48.2173H84.7372C84.6918 47.956 84.608 47.7244 84.4858 47.5227C84.3636 47.3182 84.2116 47.1449 84.0298 47.0028C83.848 46.8608 83.6406 46.7543 83.4077 46.6832C83.1776 46.6094 82.929 46.5724 82.6619 46.5724C82.1875 46.5724 81.767 46.6918 81.4006 46.9304C81.0341 47.1662 80.7472 47.5128 80.5398 47.9702C80.3324 48.4247 80.2287 48.9801 80.2287 49.6364C80.2287 50.304 80.3324 50.8665 80.5398 51.3239C80.75 51.7784 81.0369 52.1222 81.4006 52.3551C81.767 52.5852 82.1861 52.7003 82.6577 52.7003C82.919 52.7003 83.1634 52.6662 83.3906 52.598C83.6207 52.527 83.8267 52.4233 84.0085 52.2869C84.1932 52.1506 84.348 51.983 84.473 51.7841C84.6009 51.5852 84.6889 51.358 84.7372 51.1023L86.331 51.1108C86.2713 51.5256 86.142 51.9148 85.9432 52.2784C85.7472 52.642 85.4901 52.9631 85.1719 53.2415C84.8537 53.517 84.4815 53.733 84.0554 53.8892C83.6293 54.0426 83.1563 54.1193 82.6364 54.1193C81.8693 54.1193 81.1847 53.9418 80.5824 53.5866C79.9801 53.2315 79.5057 52.7188 79.1591 52.0483C78.8125 51.3778 78.6392 50.5739 78.6392 49.6364C78.6392 48.696 78.8139 47.892 79.1634 47.2244C79.5128 46.554 79.9886 46.0412 80.5909 45.6861C81.1932 45.331 81.875 45.1534 82.6364 45.1534C83.1222 45.1534 83.5739 45.2216 83.9915 45.358C84.4091 45.4943 84.7813 45.6946 85.108 45.9588C85.4347 46.2202 85.7031 46.5412 85.9134 46.9219C86.1264 47.2997 86.2656 47.7315 86.331 48.2173ZM90.5657 54.1278C89.9265 54.1278 89.3725 53.9872 88.9038 53.706C88.435 53.4247 88.0714 53.0312 87.8129 52.5256C87.5572 52.0199 87.4293 51.429 87.4293 50.7528C87.4293 50.0767 87.5572 49.4844 87.8129 48.9759C88.0714 48.4673 88.435 48.0724 88.9038 47.7912C89.3725 47.5099 89.9265 47.3693 90.5657 47.3693C91.2049 47.3693 91.7589 47.5099 92.2276 47.7912C92.6964 48.0724 93.0586 48.4673 93.3143 48.9759C93.5728 49.4844 93.7021 50.0767 93.7021 50.7528C93.7021 51.429 93.5728 52.0199 93.3143 52.5256C93.0586 53.0312 92.6964 53.4247 92.2276 53.706C91.7589 53.9872 91.2049 54.1278 90.5657 54.1278ZM90.5742 52.892C90.9208 52.892 91.2106 52.7969 91.4435 52.6065C91.6765 52.4134 91.8498 52.1548 91.9634 51.831C92.0799 51.5071 92.1381 51.1463 92.1381 50.7486C92.1381 50.348 92.0799 49.9858 91.9634 49.6619C91.8498 49.3352 91.6765 49.0753 91.4435 48.8821C91.2106 48.6889 90.9208 48.5923 90.5742 48.5923C90.2191 48.5923 89.9237 48.6889 89.6879 48.8821C89.4549 49.0753 89.2802 49.3352 89.1637 49.6619C89.0501 49.9858 88.9933 50.348 88.9933 50.7486C88.9933 51.1463 89.0501 51.5071 89.1637 51.831C89.2802 52.1548 89.4549 52.4134 89.6879 52.6065C89.9237 52.7969 90.2191 52.892 90.5742 52.892ZM99.1832 51.2472V47.4545H100.726V54H99.2301V52.8366H99.1619C99.0142 53.2031 98.7713 53.5028 98.4332 53.7358C98.098 53.9687 97.6847 54.0852 97.1932 54.0852C96.7642 54.0852 96.3849 53.9901 96.0554 53.7997C95.7287 53.6065 95.473 53.3267 95.2884 52.9602C95.1037 52.5909 95.0114 52.1449 95.0114 51.6222V47.4545H96.554V51.3835C96.554 51.7983 96.6676 52.1278 96.8949 52.3722C97.1222 52.6165 97.4205 52.7386 97.7898 52.7386C98.017 52.7386 98.2372 52.6832 98.4503 52.5724C98.6634 52.4616 98.8381 52.2969 98.9744 52.0781C99.1136 51.8565 99.1832 51.5795 99.1832 51.2472ZM102.312 54V47.4545H103.808V48.5455H103.876C103.995 48.1676 104.2 47.8764 104.49 47.6719C104.782 47.4645 105.116 47.3608 105.491 47.3608C105.576 47.3608 105.672 47.3651 105.777 47.3736C105.885 47.3793 105.974 47.3892 106.045 47.4034V48.8224C105.98 48.7997 105.876 48.7798 105.734 48.7628C105.595 48.7429 105.46 48.733 105.329 48.733C105.048 48.733 104.795 48.794 104.571 48.9162C104.349 49.0355 104.174 49.2017 104.047 49.4148C103.919 49.6278 103.855 49.8736 103.855 50.152V54H102.312ZM112.243 49.1847L110.837 49.3381C110.797 49.196 110.728 49.0625 110.628 48.9375C110.532 48.8125 110.401 48.7116 110.236 48.6349C110.071 48.5582 109.87 48.5199 109.631 48.5199C109.31 48.5199 109.04 48.5895 108.821 48.7287C108.605 48.8679 108.499 49.0483 108.502 49.2699C108.499 49.4602 108.569 49.6151 108.711 49.7344C108.855 49.8537 109.094 49.9517 109.426 50.0284L110.543 50.267C111.162 50.4006 111.623 50.6122 111.924 50.902C112.228 51.1918 112.381 51.571 112.384 52.0398C112.381 52.4517 112.26 52.8153 112.022 53.1307C111.786 53.4432 111.458 53.6875 111.037 53.8636C110.617 54.0398 110.134 54.1278 109.588 54.1278C108.787 54.1278 108.142 53.9602 107.654 53.625C107.165 53.2869 106.874 52.8168 106.78 52.2145L108.284 52.0696C108.353 52.3651 108.498 52.5881 108.719 52.7386C108.941 52.8892 109.229 52.9645 109.584 52.9645C109.951 52.9645 110.245 52.8892 110.466 52.7386C110.691 52.5881 110.803 52.402 110.803 52.1804C110.803 51.9929 110.73 51.8381 110.586 51.7159C110.444 51.5937 110.222 51.5 109.921 51.4347L108.804 51.2003C108.176 51.0696 107.712 50.8494 107.411 50.5398C107.11 50.2273 106.961 49.8324 106.963 49.3551C106.961 48.9517 107.07 48.6023 107.292 48.3068C107.516 48.0085 107.827 47.7784 108.225 47.6165C108.625 47.4517 109.087 47.3693 109.61 47.3693C110.377 47.3693 110.98 47.5327 111.421 47.8594C111.864 48.1861 112.138 48.6278 112.243 49.1847ZM116.554 54.1278C115.897 54.1278 115.331 53.9915 114.853 53.7188C114.379 53.4432 114.014 53.054 113.758 52.5511C113.502 52.0455 113.375 51.4503 113.375 50.7656C113.375 50.0923 113.502 49.5014 113.758 48.9929C114.017 48.4815 114.377 48.0838 114.841 47.7997C115.304 47.5128 115.848 47.3693 116.473 47.3693C116.876 47.3693 117.257 47.4347 117.615 47.5653C117.975 47.6932 118.294 47.892 118.569 48.1619C118.848 48.4318 119.066 48.7756 119.225 49.1932C119.385 49.608 119.464 50.1023 119.464 50.6761V51.1491H114.099V50.1094H117.985C117.983 49.8139 117.919 49.5511 117.794 49.321C117.669 49.0881 117.494 48.9048 117.27 48.7713C117.048 48.6378 116.789 48.571 116.494 48.571C116.179 48.571 115.902 48.6477 115.663 48.8011C115.424 48.9517 115.238 49.1506 115.105 49.3977C114.974 49.642 114.907 49.9105 114.904 50.2031V51.1108C114.904 51.4915 114.974 51.8182 115.113 52.0909C115.252 52.3608 115.447 52.5682 115.697 52.7131C115.947 52.8551 116.24 52.9261 116.575 52.9261C116.799 52.9261 117.002 52.8949 117.184 52.8324C117.366 52.767 117.524 52.6719 117.657 52.5469C117.791 52.4219 117.892 52.267 117.96 52.0824L119.4 52.2443C119.309 52.625 119.136 52.9574 118.88 53.2415C118.627 53.5227 118.304 53.7415 117.909 53.8977C117.514 54.0511 117.062 54.1278 116.554 54.1278ZM125.942 49.1847L124.536 49.3381C124.496 49.196 124.427 49.0625 124.327 48.9375C124.231 48.8125 124.1 48.7116 123.935 48.6349C123.771 48.5582 123.569 48.5199 123.33 48.5199C123.009 48.5199 122.739 48.5895 122.521 48.7287C122.305 48.8679 122.198 49.0483 122.201 49.2699C122.198 49.4602 122.268 49.6151 122.41 49.7344C122.555 49.8537 122.793 49.9517 123.126 50.0284L124.242 50.267C124.862 50.4006 125.322 50.6122 125.623 50.902C125.927 51.1918 126.08 51.571 126.083 52.0398C126.08 52.4517 125.96 52.8153 125.721 53.1307C125.485 53.4432 125.157 53.6875 124.737 53.8636C124.316 54.0398 123.833 54.1278 123.288 54.1278C122.487 54.1278 121.842 53.9602 121.353 53.625C120.864 53.2869 120.573 52.8168 120.479 52.2145L121.984 52.0696C122.052 52.3651 122.197 52.5881 122.418 52.7386C122.64 52.8892 122.928 52.9645 123.283 52.9645C123.65 52.9645 123.944 52.8892 124.165 52.7386C124.39 52.5881 124.502 52.402 124.502 52.1804C124.502 51.9929 124.43 51.8381 124.285 51.7159C124.143 51.5937 123.921 51.5 123.62 51.4347L122.504 51.2003C121.876 51.0696 121.411 50.8494 121.11 50.5398C120.809 50.2273 120.66 49.8324 120.663 49.3551C120.66 48.9517 120.769 48.6023 120.991 48.3068C121.215 48.0085 121.526 47.7784 121.924 47.6165C122.325 47.4517 122.786 47.3693 123.309 47.3693C124.076 47.3693 124.68 47.5327 125.12 47.8594C125.563 48.1861 125.837 48.6278 125.942 49.1847Z" fill="#676B7C"/>
<defs>
<filter id="filter0_d_187_4228" x="0" y="0" width="158" height="90" filterUnits="userSpaceOnUse" color-interpolation-filters="sRGB">
<feFlood flood-opacity="0" result="BackgroundImageFix"/>
<feColorMatrix in="SourceAlpha" type="matrix" values="0 0 0 0 0 0 0 0 0 0 0 0 0 0 0 0 0 0 127 0" result="hardAlpha"/>
<feOffset dy="6"/>
<feGaussianBlur stdDeviation="8"/>
<feComposite in2="hardAlpha" operator="out"/>
<feColorMatrix type="matrix" values="0 0 0 0 0.976471 0 0 0 0 0.662745 0 0 0 0 0.470588 0 0 0 0.4 0"/>
<feBlend mode="normal" in2="BackgroundImageFix" result="effect1_dropShadow_187_4228"/>
<feBlend mode="normal" in="SourceGraphic" in2="effect1_dropShadow_187_4228" result="shape"/>
</filter>
</defs>
</svg>
