<svg width="95" height="20" viewBox="0 0 95 20" fill="none" xmlns="http://www.w3.org/2000/svg">
<path fill-rule="evenodd" clip-rule="evenodd" d="M15 1.33782C12.011 3.06687 10 6.29859 10 10C10 13.7014 12.011 16.9331 15 18.6622C13.5291 19.513 11.8214 20 10 20C4.47715 20 0 15.5228 0 10C0 4.47715 4.47715 0 10 0C11.8214 0 13.5291 0.486972 15 1.33782Z" fill="#FFD05A"/>
<circle cx="21" cy="10" r="10" fill="#0166FF"/>
<path d="M42.0114 16V4.36364H49.8523V6.39205H44.4716V9.16477H49.4489V11.1932H44.4716V13.9716H49.875V16H42.0114ZM54.9787 16.142C54.3158 16.142 53.7154 15.9716 53.1776 15.6307C52.6435 15.286 52.2192 14.7803 51.9048 14.1136C51.5942 13.4432 51.4389 12.6212 51.4389 11.6477C51.4389 10.6477 51.5999 9.81629 51.9219 9.15341C52.2438 8.48674 52.6719 7.98864 53.206 7.65909C53.7438 7.32576 54.3329 7.15909 54.973 7.15909C55.4616 7.15909 55.8688 7.24242 56.1946 7.40909C56.5241 7.57197 56.7893 7.77652 56.9901 8.02273C57.1946 8.26515 57.3499 8.50379 57.456 8.73864H57.5298V4.36364H59.9446V16H57.5582V14.6023H57.456C57.3423 14.8447 57.1813 15.0852 56.973 15.3239C56.7685 15.5587 56.5014 15.7538 56.1719 15.9091C55.8461 16.0644 55.4484 16.142 54.9787 16.142ZM55.7457 14.2159C56.1359 14.2159 56.4654 14.1098 56.7344 13.8977C57.0071 13.6818 57.2154 13.3807 57.3594 12.9943C57.5071 12.608 57.581 12.1553 57.581 11.6364C57.581 11.1174 57.509 10.6667 57.3651 10.2841C57.2211 9.90151 57.0128 9.60606 56.7401 9.39773C56.4673 9.18939 56.1359 9.08523 55.7457 9.08523C55.348 9.08523 55.0128 9.19318 54.7401 9.40909C54.4673 9.625 54.2609 9.92424 54.1207 10.3068C53.9806 10.6894 53.9105 11.1326 53.9105 11.6364C53.9105 12.1439 53.9806 12.5928 54.1207 12.983C54.2647 13.3693 54.4711 13.6723 54.7401 13.892C55.0128 14.108 55.348 14.2159 55.7457 14.2159ZM67.5312 12.2841V7.27273H69.9517V16H67.6278V14.4148H67.5369C67.34 14.9261 67.0123 15.3371 66.554 15.6477C66.0994 15.9583 65.5445 16.1136 64.8892 16.1136C64.3059 16.1136 63.7926 15.9811 63.3494 15.7159C62.9063 15.4508 62.5597 15.0739 62.3097 14.5852C62.0634 14.0966 61.9384 13.5114 61.9347 12.8295V7.27273H64.3551V12.3977C64.3589 12.9129 64.4972 13.3201 64.7699 13.6193C65.0426 13.9186 65.4081 14.0682 65.8665 14.0682C66.1581 14.0682 66.4309 14.0019 66.6847 13.8693C66.9384 13.733 67.143 13.5322 67.2983 13.267C67.4574 13.0019 67.535 12.6742 67.5312 12.2841ZM74.081 13.4886L74.0866 10.5852H74.4389L77.2344 7.27273H80.0128L76.2571 11.6591H75.6832L74.081 13.4886ZM71.8878 16V4.36364H74.3082V16H71.8878ZM77.3423 16L74.7741 12.1989L76.3878 10.4886L80.1776 16H77.3423ZM83.6889 16.1648C83.1321 16.1648 82.6359 16.0682 82.2003 15.875C81.7647 15.678 81.42 15.3883 81.1662 15.0057C80.9162 14.6193 80.7912 14.1383 80.7912 13.5625C80.7912 13.0777 80.8802 12.6705 81.0582 12.3409C81.2363 12.0114 81.4787 11.7462 81.7855 11.5455C82.0923 11.3447 82.4408 11.1932 82.831 11.0909C83.2249 10.9886 83.6378 10.9167 84.0696 10.875C84.5772 10.822 84.9863 10.7727 85.2969 10.7273C85.6075 10.678 85.8329 10.6061 85.973 10.5114C86.1132 10.4167 86.1832 10.2765 86.1832 10.0909V10.0568C86.1832 9.69697 86.0696 9.41856 85.8423 9.22159C85.6188 9.02462 85.3007 8.92614 84.8878 8.92614C84.4522 8.92614 84.1056 9.02273 83.848 9.21591C83.5904 9.4053 83.42 9.64394 83.3366 9.93182L81.098 9.75C81.2116 9.2197 81.4351 8.76136 81.7685 8.375C82.1018 7.98485 82.5317 7.68561 83.0582 7.47727C83.5885 7.26515 84.2022 7.15909 84.8991 7.15909C85.384 7.15909 85.848 7.21591 86.2912 7.32955C86.7382 7.44318 87.134 7.61932 87.4787 7.85795C87.8272 8.09659 88.1018 8.40341 88.3026 8.77841C88.5033 9.14962 88.6037 9.5947 88.6037 10.1136V16H86.3082V14.7898H86.2401C86.0999 15.0625 85.9124 15.303 85.6776 15.5114C85.4427 15.7159 85.1605 15.8769 84.831 15.9943C84.5014 16.108 84.1207 16.1648 83.6889 16.1648ZM84.3821 14.4943C84.7382 14.4943 85.0526 14.4242 85.3253 14.2841C85.598 14.1402 85.812 13.947 85.9673 13.7045C86.1226 13.4621 86.2003 13.1875 86.2003 12.8807V11.9545C86.1245 12.0038 86.0204 12.0492 85.8878 12.0909C85.759 12.1288 85.6132 12.1648 85.4503 12.1989C85.2874 12.2292 85.1245 12.2576 84.9616 12.2841C84.7988 12.3068 84.651 12.3277 84.5185 12.3466C84.2344 12.3883 83.9863 12.4545 83.7741 12.5455C83.562 12.6364 83.3973 12.7595 83.2798 12.9148C83.1624 13.0663 83.1037 13.2557 83.1037 13.483C83.1037 13.8125 83.223 14.0644 83.4616 14.2386C83.7041 14.4091 84.0109 14.4943 84.3821 14.4943ZM91.8963 16.1477C91.5213 16.1477 91.1993 16.0152 90.9304 15.75C90.6652 15.4811 90.5327 15.1591 90.5327 14.7841C90.5327 14.4129 90.6652 14.0947 90.9304 13.8295C91.1993 13.5644 91.5213 13.4318 91.8963 13.4318C92.2599 13.4318 92.5781 13.5644 92.8509 13.8295C93.1236 14.0947 93.2599 14.4129 93.2599 14.7841C93.2599 15.0341 93.1955 15.2633 93.0668 15.4716C92.9418 15.6761 92.777 15.8409 92.5724 15.9659C92.3679 16.0871 92.1425 16.1477 91.8963 16.1477Z" fill="black"/>
</svg>
