<svg width="8" height="12" viewBox="0 0 8 12" fill="none" xmlns="http://www.w3.org/2000/svg">
<path d="M1.87891 0.757884C2.01025 0.757736 2.14032 0.783544 2.26165 0.833827C2.38298 0.884109 2.49318 0.957875 2.58591 1.05088L6.82812 5.29356C6.921 5.38639 6.99468 5.49662 7.04495 5.61793C7.09522 5.73925 7.12109 5.86928 7.12109 6.00059C7.12109 6.13191 7.09522 6.26194 7.04495 6.38326C6.99468 6.50457 6.921 6.61479 6.82812 6.70762L2.58594 10.9503C2.39842 11.1378 2.14409 11.2432 1.87891 11.2432C1.61372 11.2432 1.35939 11.1378 1.17188 10.9503C0.984359 10.7628 0.879014 10.5085 0.879015 10.2433C0.879016 9.97808 0.984363 9.72375 1.17188 9.53623L4.707 6.00056L1.17185 2.46492C1.03204 2.32507 0.936835 2.14691 0.898268 1.95295C0.8597 1.759 0.879502 1.55797 0.955172 1.37527C1.03084 1.19257 1.15898 1.03641 1.32339 0.926522C1.4878 0.816638 1.6811 0.757966 1.87885 0.757924L1.87891 0.757884Z" fill="#262626"/>
</svg>
