<svg width="165" height="29" viewBox="0 0 165 29" fill="none" xmlns="http://www.w3.org/2000/svg">
<path d="M13.3905 3.77926C13.8103 2.80649 15.1897 2.80649 15.6094 3.77926L18.2436 9.88362C18.4214 10.2955 18.8127 10.575 19.26 10.6096L26.0154 11.1316C27.0992 11.2153 27.5299 12.576 26.6916 13.2681L21.6113 17.4626C21.2529 17.7584 21.096 18.2336 21.2076 18.6847L22.7711 25.0022C23.0283 26.0412 21.9075 26.8768 20.9852 26.3338L15.113 22.8768C14.7347 22.6541 14.2653 22.6541 13.887 22.8768L8.01479 26.3338C7.09247 26.8768 5.97171 26.0412 6.22883 25.0022L7.79234 18.6847C7.90398 18.2336 7.74705 17.7584 7.38871 17.4626L2.30841 13.2681C1.47011 12.576 1.90077 11.2153 2.98463 11.1316L9.74 10.6096C10.1873 10.575 10.5786 10.2955 10.7563 9.88362L13.3905 3.77926Z" fill="#226BFC"/>
<path d="M47.2245 3.77926C47.6443 2.80649 49.0236 2.80649 49.4434 3.77926L52.0776 9.88362C52.2554 10.2955 52.6467 10.575 53.094 10.6096L59.8493 11.1316C60.9332 11.2153 61.3638 12.576 60.5256 13.2681L55.4453 17.4626C55.0869 17.7584 54.93 18.2336 55.0416 18.6847L56.6051 25.0022C56.8623 26.0412 55.7415 26.8768 54.8192 26.3338L48.947 22.8768C48.5687 22.6541 48.0993 22.6541 47.721 22.8768L41.8488 26.3338C40.9265 26.8768 39.8057 26.0412 40.0628 25.0022L41.6263 18.6847C41.738 18.2336 41.581 17.7584 41.2227 17.4626L36.1424 13.2681C35.3041 12.576 35.7348 11.2153 36.8186 11.1316L43.574 10.6096C44.0213 10.575 44.4126 10.2955 44.5903 9.88362L47.2245 3.77926Z" fill="#226BFC"/>
<path d="M81.0566 3.77926C81.4763 2.80649 82.8557 2.80649 83.2754 3.77926L85.9096 9.88362C86.0874 10.2955 86.4787 10.575 86.926 10.6096L93.6814 11.1316C94.7652 11.2153 95.1959 12.576 94.3576 13.2681L89.2773 17.4626C88.919 17.7584 88.762 18.2336 88.8737 18.6847L90.4372 25.0022C90.6943 26.0412 89.5735 26.8768 88.6512 26.3338L82.779 22.8768C82.4007 22.6541 81.9313 22.6541 81.553 22.8768L75.6808 26.3338C74.7585 26.8768 73.6377 26.0412 73.8948 25.0022L75.4584 18.6847C75.57 18.2336 75.4131 17.7584 75.0547 17.4626L69.9744 13.2681C69.1361 12.576 69.5668 11.2153 70.6506 11.1316L77.406 10.6096C77.8533 10.575 78.2446 10.2955 78.4224 9.88362L81.0566 3.77926Z" fill="#226BFC"/>
<path d="M114.891 3.77926C115.31 2.80649 116.69 2.80649 117.109 3.77926L119.744 9.88362C119.921 10.2955 120.313 10.575 120.76 10.6096L127.515 11.1316C128.599 11.2153 129.03 12.576 128.192 13.2681L123.111 17.4626C122.753 17.7584 122.596 18.2336 122.708 18.6847L124.271 25.0022C124.528 26.0412 123.408 26.8768 122.485 26.3338L116.613 22.8768C116.235 22.6541 115.765 22.6541 115.387 22.8768L109.515 26.3338C108.592 26.8768 107.472 26.0412 107.729 25.0022L109.292 18.6847C109.404 18.2336 109.247 17.7584 108.889 17.4626L103.808 13.2681C102.97 12.576 103.401 11.2153 104.485 11.1316L111.24 10.6096C111.687 10.575 112.079 10.2955 112.256 9.88362L114.891 3.77926Z" fill="#226BFC"/>
<path d="M148.725 3.77926C149.144 2.80649 150.524 2.80649 150.943 3.77926L153.578 9.88362C153.755 10.2955 154.147 10.575 154.594 10.6096L161.349 11.1316C162.433 11.2153 162.864 12.576 162.026 13.2681L156.945 17.4626C156.587 17.7584 156.43 18.2336 156.542 18.6847L158.105 25.0022C158.362 26.0412 157.241 26.8768 156.319 26.3338L150.447 22.8768C150.069 22.6541 149.599 22.6541 149.221 22.8768L143.349 26.3338C142.426 26.8768 141.306 26.0412 141.563 25.0022L143.126 18.6847C143.238 18.2336 143.081 17.7584 142.723 17.4626L137.642 13.2681C136.804 12.576 137.235 11.2153 138.319 11.1316L145.074 10.6096C145.521 10.575 145.913 10.2955 146.09 9.88362L148.725 3.77926Z" fill="#226BFC"/>
</svg>
