<svg width="68" height="12" viewBox="0 0 68 12" fill="none" xmlns="http://www.w3.org/2000/svg">
<path d="M5.54103 1.56386C5.71473 1.16133 6.28549 1.16133 6.45919 1.56386L7.54921 4.0898C7.62276 4.26024 7.78468 4.37591 7.96976 4.39021L10.7651 4.6062C11.2136 4.64086 11.3918 5.20389 11.0449 5.49028L8.94271 7.22592C8.79443 7.34835 8.7295 7.54495 8.77569 7.73161L9.42266 10.3458C9.52906 10.7757 9.06529 11.1215 8.68364 10.8968L6.25377 9.46628C6.09722 9.37412 5.903 9.37412 5.74645 9.46628L3.31658 10.8968C2.93493 11.1215 2.47117 10.7757 2.57757 10.3458L3.22453 7.73161C3.27073 7.54495 3.20579 7.34835 3.05751 7.22592L0.955321 5.49028C0.608441 5.20389 0.786643 4.64086 1.23514 4.6062L4.03046 4.39021C4.21554 4.37591 4.37747 4.26024 4.45102 4.0898L5.54103 1.56386Z" fill="#FBAB5E"/>
<path d="M19.541 1.56386C19.7147 1.16133 20.2855 1.16133 20.4592 1.56386L21.5492 4.0898C21.6228 4.26024 21.7847 4.37591 21.9698 4.39021L24.7651 4.6062C25.2136 4.64086 25.3918 5.20389 25.0449 5.49028L22.9427 7.22592C22.7944 7.34835 22.7295 7.54495 22.7757 7.73161L23.4227 10.3458C23.5291 10.7757 23.0653 11.1215 22.6836 10.8968L20.2538 9.46628C20.0972 9.37412 19.903 9.37412 19.7465 9.46628L17.3166 10.8968C16.9349 11.1215 16.4712 10.7757 16.5776 10.3458L17.2245 7.73161C17.2707 7.54495 17.2058 7.34835 17.0575 7.22592L14.9553 5.49028C14.6084 5.20389 14.7866 4.64086 15.2351 4.6062L18.0305 4.39021C18.2155 4.37591 18.3775 4.26024 18.451 4.0898L19.541 1.56386Z" fill="#FBAB5E"/>
<path d="M33.541 1.56386C33.7147 1.16133 34.2855 1.16133 34.4592 1.56386L35.5492 4.0898C35.6228 4.26024 35.7847 4.37591 35.9698 4.39021L38.7651 4.6062C39.2136 4.64086 39.3918 5.20389 39.0449 5.49028L36.9427 7.22592C36.7944 7.34835 36.7295 7.54495 36.7757 7.73161L37.4227 10.3458C37.5291 10.7757 37.0653 11.1215 36.6836 10.8968L34.2538 9.46628C34.0972 9.37412 33.903 9.37412 33.7465 9.46628L31.3166 10.8968C30.9349 11.1215 30.4712 10.7757 30.5776 10.3458L31.2245 7.73161C31.2707 7.54495 31.2058 7.34835 31.0575 7.22592L28.9553 5.49028C28.6084 5.20389 28.7866 4.64086 29.2351 4.6062L32.0305 4.39021C32.2155 4.37591 32.3775 4.26024 32.451 4.0898L33.541 1.56386Z" fill="#FBAB5E"/>
<path d="M47.541 1.56386C47.7147 1.16133 48.2855 1.16133 48.4592 1.56386L49.5492 4.0898C49.6228 4.26024 49.7847 4.37591 49.9698 4.39021L52.7651 4.6062C53.2136 4.64086 53.3918 5.20389 53.0449 5.49028L50.9427 7.22592C50.7944 7.34835 50.7295 7.54495 50.7757 7.73161L51.4227 10.3458C51.5291 10.7757 51.0653 11.1215 50.6836 10.8968L48.2538 9.46628C48.0972 9.37412 47.903 9.37412 47.7465 9.46628L45.3166 10.8968C44.9349 11.1215 44.4712 10.7757 44.5776 10.3458L45.2245 7.73161C45.2707 7.54495 45.2058 7.34835 45.0575 7.22592L42.9553 5.49028C42.6084 5.20389 42.7866 4.64086 43.2351 4.6062L46.0305 4.39021C46.2155 4.37591 46.3775 4.26024 46.451 4.0898L47.541 1.56386Z" fill="#FBAB5E"/>
<path d="M61.541 1.56386C61.7147 1.16133 62.2855 1.16133 62.4592 1.56386L63.5492 4.0898C63.6228 4.26024 63.7847 4.37591 63.9698 4.39021L66.7651 4.6062C67.2136 4.64086 67.3918 5.20389 67.0449 5.49028L64.9427 7.22592C64.7944 7.34835 64.7295 7.54495 64.7757 7.73161L65.4227 10.3458C65.5291 10.7757 65.0653 11.1215 64.6836 10.8968L62.2538 9.46628C62.0972 9.37412 61.903 9.37412 61.7465 9.46628L59.3166 10.8968C58.9349 11.1215 58.4712 10.7757 58.5776 10.3458L59.2245 7.73161C59.2707 7.54495 59.2058 7.34835 59.0575 7.22592L56.9553 5.49028C56.6084 5.20389 56.7866 4.64086 57.2351 4.6062L60.0305 4.39021C60.2155 4.37591 60.3775 4.26024 60.451 4.0898L61.541 1.56386Z" fill="#FBAB5E"/>
</svg>
